<?xml version="1.0" encoding="utf-8"?>
<!-- Generator: Adobe Illustrator 16.0.4, SVG Export Plug-In . SVG Version: 6.00 Build 0)  -->
<!DOCTYPE svg PUBLIC "-//W3C//DTD SVG 1.1//EN" "http://www.w3.org/Graphics/SVG/1.1/DTD/svg11.dtd">
<svg version="1.1" xmlns="http://www.w3.org/2000/svg" xmlns:xlink="http://www.w3.org/1999/xlink" x="0px" y="0px"
	 width="59.041px" height="59.04px" viewBox="0 0 59.041 59.04" enable-background="new 0 0 59.041 59.04" xml:space="preserve">
<g id="Layer_2">
</g>
<g id="Layer_1">
	<g>
		<g>
			<rect x="0.36" y="0.36" fill-rule="evenodd" clip-rule="evenodd" fill="#FFFFFF" width="58.32" height="58.32"/>
			<path fill="#010101" d="M58.68,59.04H0.36C0.161,59.04,0,58.879,0,58.68V0.36C0,0.161,0.161,0,0.36,0h58.32
				c0.199,0,0.36,0.161,0.36,0.36v58.32C59.041,58.879,58.879,59.04,58.68,59.04z M0.72,58.319h57.6V0.72H0.72V58.319z"/>
		</g>
		<path fill-rule="evenodd" clip-rule="evenodd" fill="#010101" d="M32.049,23.439l-0.93-2.89c-1,0.33-1.6,0.2-1.94-0.85l-4.1-12.68
			l-3.19,1.03l4.16,12.88c0.99,3.08,2.86,3.53,5.781,2.58L32.049,23.439z M36.75,21.91l-0.931-2.89c-1,0.33-1.601,0.2-1.94-0.85
			l-4.1-12.68l-3.19,1.03L30.75,19.4c1,3.08,2.859,3.53,5.789,2.58L36.75,21.91z M13.31,40.449c0.18,0.561-0.06,0.99-0.45,1.11
			c-0.39,0.13-0.83-0.08-1.01-0.64l-1.76-5.45c-0.18-0.56,0.05-0.99,0.44-1.12c0.39-0.12,0.84,0.08,1.02,0.65L13.31,40.449z
			 M16.53,39.51l-1.87-5.801c-0.76-2.34-2.18-3.17-4.06-2.559c-0.75,0.239-1.27,0.809-1.4,1.559L7.54,27.58l-3.19,1.03l4.34,13.45
			c0.74,2.29,2.72,3.16,5.11,2.39C16.18,43.67,17.27,41.8,16.53,39.51z M25.4,21.77l-2.95-9.12l-3.19,1.04l2.92,9.02
			c0.18,0.56-0.01,0.97-0.4,1.1c-0.39,0.12-0.79-0.1-0.97-0.66l-2.91-9.02l-3.1,1.01l-0.09,0.03l-1.51,0.49l-0.04-0.1
			c-0.35-1.1,0.08-1.59,1.22-1.88l-0.93-2.88c-3.39,0.83-4.44,2.82-3.52,5.65l3.03,9.4l0.02-0.01l5.46,16.88l3.19-1.04l-2.92-9.01
			c-0.18-0.57,0.01-0.98,0.4-1.11c0.39-0.12,0.78,0.101,0.97,0.66l2.91,9.021l3.19-1.041l-2.99-9.26c-0.76-2.34-2.19-3.18-4.04-2.58
			c-0.7,0.23-1.21,0.83-1.37,1.419l-1.62-5.01l-0.02,0.01l-2.01-6.24l1.51-0.49l2.01,6.23c0.75,2.3,2.67,3.19,5.06,2.41
			C25.1,25.91,26.14,24.06,25.4,21.77z M33.59,33.959l-2.951-9.119l-3.189,1.04l2.92,9.021c0.18,0.559-0.01,0.969-0.4,1.1
			c-0.39,0.13-0.79-0.1-0.97-0.66l-2.91-9.02l-3.19,1.04l2.94,9.12c0.75,2.29,2.67,3.181,5.06,2.4
			C33.29,38.109,34.331,36.26,33.59,33.959z M43.28,34.64l-2.939-9.11c-0.74-2.3-2.67-3.19-5.061-2.41
			c-2.38,0.77-3.43,2.63-2.68,4.92l2.939,9.121l3.19-1.041l-2.91-9.02c-0.181-0.56,0.011-0.97,0.39-1.1
			C36.6,25.88,37,26.1,37.18,26.66l2.91,9.02L43.28,34.64z M47.57,29.31c0.181,0.56-0.06,0.99-0.45,1.11
			c-0.39,0.13-0.83-0.08-1.01-0.641l-1.77-5.45c-0.181-0.56,0.06-0.99,0.449-1.12c0.391-0.12,0.83,0.08,1.021,0.65L47.57,29.31z
			 M51.91,31.84l-2.95-9.12c-0.74-2.3-2.72-3.17-5.1-2.39c-2.391,0.78-3.48,2.64-2.74,4.94L43,31.06
			c0.75,2.351,2.18,3.181,4.049,2.57c0.86-0.28,1.36-0.95,1.431-1.729l0.31,0.949L51.91,31.84z"/>
		<g>
			<path fill-rule="evenodd" clip-rule="evenodd" fill="#010101" d="M14.29,52.229l-1.55-4.78l-0.31,0.101l1.03,3.17
				c0.18,0.56,0.12,1.04-0.36,1.2c-0.45,0.15-0.69-0.17-0.89-0.79l-1.03-3.181l-0.31,0.11l1.03,3.19c0.27,0.82,0.62,1.209,1.3,0.99
				c0.31-0.101,0.51-0.351,0.54-0.66l0.23,0.74c0.19,0.58,0.14,1.029-0.34,1.18c-0.35,0.109-0.69-0.01-0.84-0.45l-0.31,0.101
				c0.19,0.549,0.65,0.85,1.25,0.659C14.37,53.6,14.54,53,14.29,52.229z"/>
			<path fill-rule="evenodd" clip-rule="evenodd" fill="#010101" d="M15.96,49.89c0.19,0.59,0.12,1.069-0.32,1.21
				c-0.44,0.15-0.77-0.199-0.96-0.79l-0.64-1.979c-0.19-0.59-0.13-1.061,0.32-1.2c0.44-0.15,0.77,0.19,0.96,0.78L15.96,49.89z
				 M16.28,49.81l-0.65-2.021c-0.27-0.81-0.73-1.189-1.38-0.979s-0.79,0.79-0.53,1.601l0.65,2.02c0.25,0.79,0.72,1.189,1.37,0.98
				C16.39,51.199,16.53,50.6,16.28,49.81z"/>
			<path fill-rule="evenodd" clip-rule="evenodd" fill="#010101" d="M18.79,49.01l-1.03-3.189l-0.32,0.1l1.03,3.17
				c0.19,0.58,0.1,1.05-0.38,1.21c-0.48,0.159-0.83-0.17-1.02-0.75l-1.02-3.181l-0.32,0.101l1.04,3.19
				c0.25,0.81,0.71,1.189,1.42,0.959C18.9,50.39,19.05,49.81,18.79,49.01z"/>
			<path fill-rule="evenodd" clip-rule="evenodd" fill="#010101" d="M19.4,45.609l-0.1-0.31c-0.74,0.229-0.92,0.79-0.68,1.521
				l1.01,3.149l0.32-0.101l-1.02-3.14C18.75,46.17,18.86,45.77,19.4,45.609z"/>
			<path fill-rule="evenodd" clip-rule="evenodd" fill="#010101" d="M23.94,47.43l-0.02-0.08l-0.32,0.1l0.03,0.08
				c0.18,0.561,0.05,0.95-0.36,1.08c-0.42,0.141-0.74-0.1-0.92-0.66l-0.72-2.22c-0.18-0.569-0.06-0.95,0.36-1.09
				c0.41-0.13,0.74,0.11,0.92,0.67l0.03,0.08l0.31-0.101l-0.03-0.08c-0.25-0.799-0.76-1.069-1.33-0.879
				c-0.59,0.189-0.83,0.709-0.57,1.5l0.71,2.22c0.26,0.79,0.76,1.069,1.34,0.88C23.95,48.74,24.2,48.229,23.94,47.43z"/>
			<path fill-rule="evenodd" clip-rule="evenodd" fill="#010101" d="M25.87,46.67c0.19,0.59,0.12,1.07-0.32,1.21
				c-0.44,0.149-0.77-0.21-0.96-0.79l-0.64-1.98c-0.19-0.59-0.13-1.06,0.32-1.209c0.44-0.141,0.77,0.199,0.96,0.789L25.87,46.67z
				 M26.19,46.59l-0.65-2.02c-0.27-0.811-0.73-1.19-1.38-0.98c-0.65,0.21-0.79,0.79-0.53,1.6l0.65,2.02
				c0.25,0.781,0.72,1.191,1.37,0.98C26.3,47.979,26.44,47.369,26.19,46.59z"/>
			<path fill-rule="evenodd" clip-rule="evenodd" fill="#010101" d="M30.54,46.42l-1.02-3.15c-0.26-0.811-0.72-1.189-1.37-0.98
				c-0.39,0.131-0.59,0.42-0.62,0.791c-0.23-0.291-0.58-0.4-0.97-0.271c-0.65,0.21-0.8,0.79-0.54,1.601l1.02,3.149l0.31-0.101
				l-1.01-3.129c-0.19-0.59-0.12-1.061,0.32-1.2c0.46-0.15,0.79,0.26,0.95,0.76l1.02,3.149l0.32-0.1l-1.02-3.15
				c-0.16-0.5-0.13-1.029,0.32-1.18c0.44-0.15,0.78,0.19,0.97,0.78l1.01,3.14L30.54,46.42z"/>
			<path fill-rule="evenodd" clip-rule="evenodd" fill="#010101" d="M32.48,44.52c0.18,0.57,0.13,1.07-0.38,1.23
				c-0.51,0.17-0.84-0.2-1.02-0.771L30.44,42.99c-0.19-0.58-0.1-1.061,0.38-1.221c0.479-0.15,0.83,0.18,1.021,0.77L32.48,44.52z
				 M32.79,44.439l-0.65-2.02c-0.26-0.811-0.719-1.19-1.43-0.961c-0.7,0.23-0.85,0.811-0.59,1.621l1.57,4.85L32,47.83l-0.641-1.971
				c0.21,0.23,0.55,0.291,0.85,0.2C32.9,45.83,33.049,45.24,32.79,44.439z"/>
			<path fill-rule="evenodd" clip-rule="evenodd" fill="#010101" d="M34.62,45.15l-0.1-0.32c-0.52,0.189-0.75-0.09-0.92-0.631
				l-1.52-4.689l-0.311,0.1l1.52,4.711C33.51,45.01,33.91,45.39,34.62,45.15z"/>
			<path fill-rule="evenodd" clip-rule="evenodd" fill="#010101" d="M35.629,41.81L34.56,42.9L34.2,41.77
				c-0.189-0.59-0.119-1.061,0.32-1.199c0.439-0.141,0.77,0.199,0.96,0.789L35.629,41.81z M36.43,43.229l-0.311,0.11
				c0.211,0.58,0.131,1.061-0.32,1.21c-0.439,0.14-0.77-0.21-0.959-0.8l-0.16-0.49l1.33-1.34l-0.221-0.68
				c-0.26-0.791-0.72-1.201-1.369-0.99c-0.65,0.209-0.791,0.82-0.541,1.609l0.65,2.01c0.26,0.791,0.721,1.201,1.37,0.99
				C36.54,44.65,36.709,44.02,36.43,43.229z"/>
			<path fill-rule="evenodd" clip-rule="evenodd" fill="#010101" d="M38.27,43.959l-0.1-0.319c-0.521,0.19-0.75-0.09-0.931-0.63
				l-0.93-2.9l0.649-0.209L36.85,39.59L36.2,39.8l-0.33-1.04l-0.31,0.109l1.38,4.261C37.16,43.82,37.549,44.199,38.27,43.959z"/>
			<path fill-rule="evenodd" clip-rule="evenodd" fill="#010101" d="M39.27,40.63l-1.061,1.079L37.84,40.59
				c-0.19-0.59-0.121-1.061,0.319-1.21c0.45-0.14,0.78,0.2,0.97,0.79L39.27,40.63z M40.081,42.05L39.77,42.15
				c0.199,0.579,0.119,1.069-0.32,1.209c-0.439,0.15-0.779-0.199-0.97-0.789l-0.16-0.5l1.33-1.341l-0.22-0.68
				c-0.25-0.79-0.721-1.19-1.37-0.979c-0.65,0.209-0.79,0.81-0.53,1.6l0.65,2.02c0.25,0.78,0.72,1.19,1.369,0.98
				C40.19,43.459,40.35,42.84,40.081,42.05z"/>
			<path fill-rule="evenodd" clip-rule="evenodd" fill="#010101" d="M43.53,40.93c0.189,0.59,0.12,1.07-0.32,1.21
				c-0.439,0.14-0.779-0.21-0.97-0.8l-0.64-1.98c-0.19-0.58-0.12-1.06,0.32-1.199c0.439-0.141,0.779,0.199,0.969,0.789L43.53,40.93z
				 M43.84,40.84l-0.65-2.01c-0.26-0.811-0.721-1.2-1.37-0.99c-0.649,0.22-0.8,0.8-0.53,1.609l0.65,2.01
				c0.25,0.791,0.72,1.201,1.37,0.99C43.959,42.24,44.1,41.63,43.84,40.84z"/>
			<path fill-rule="evenodd" clip-rule="evenodd" fill="#010101" d="M46.719,41.16l-1.02-3.15c-0.26-0.811-0.72-1.189-1.43-0.96
				s-0.86,0.81-0.59,1.62l1.02,3.15l0.311-0.101l-1.021-3.14c-0.18-0.58-0.101-1.061,0.38-1.221c0.48-0.15,0.83,0.18,1.02,0.771
				l1.011,3.13L46.719,41.16z"/>
			<path fill-rule="evenodd" clip-rule="evenodd" fill="#010101" d="M48.18,40.74l-0.1-0.32c-0.521,0.189-0.75-0.09-0.931-0.631
				L45.639,35.1l-0.309,0.1l1.52,4.711C47.07,40.6,47.459,40.979,48.18,40.74z"/>
			<path fill-rule="evenodd" clip-rule="evenodd" fill="#010101" d="M48.879,40.459l-1.39-4.289l-0.31,0.1l1.39,4.29L48.879,40.459z
				 M47.26,35.43L47,34.65l-0.311,0.1l0.25,0.779L47.26,35.43z"/>
			<path fill-rule="evenodd" clip-rule="evenodd" fill="#010101" d="M51.5,39.609l-1.021-3.16c-0.261-0.81-0.72-1.189-1.431-0.959
				c-0.699,0.229-0.85,0.81-0.59,1.619l1.021,3.15l0.31-0.1l-1.01-3.131c-0.189-0.59-0.1-1.06,0.38-1.22
				c0.479-0.159,0.83,0.181,1.021,0.761l1.01,3.139L51.5,39.609z"/>
			<path fill-rule="evenodd" clip-rule="evenodd" fill="#010101" d="M52.719,36.26l-1.069,1.08l-0.36-1.12
				c-0.189-0.59-0.13-1.06,0.32-1.21c0.439-0.141,0.77,0.199,0.96,0.79L52.719,36.26z M53.52,37.68l-0.311,0.1
				c0.211,0.58,0.121,1.07-0.32,1.211c-0.439,0.14-0.77-0.211-0.959-0.791l-0.16-0.5l1.33-1.34l-0.221-0.68
				c-0.26-0.79-0.729-1.2-1.379-0.98c-0.65,0.211-0.791,0.811-0.531,1.601l0.65,2.01c0.25,0.79,0.721,1.2,1.37,0.99
				C53.629,39.09,53.79,38.47,53.52,37.68z"/>
		</g>
	</g>
</g>
</svg>
